<svg data-name="Apple Logo" xmlns="http://www.w3.org/2000/svg" width="16.396" height="19.676" viewBox="0 0 16.396 19.676">
    <g data-name="Group 436">
        <path data-name="Path 451" d="M15.769 0h.162A4.876 4.876 0 0 1 14.7 3.675a3.807 3.807 0 0 1-3.351 1.573A4.73 4.73 0 0 1 12.6 1.687 5.4 5.4 0 0 1 15.769 0z" transform="translate(-3.54)" style="fill:#fff"/>
        <path data-name="Path 452" d="M18.5 14.7v.037a10.625 10.625 0 0 1-1.674 3c-.639.817-1.421 1.916-2.818 1.916-1.207 0-2.009-.721-3.246-.741-1.309-.02-2.029.6-3.225.76h-.409a3.659 3.659 0 0 1-2.1-1.348A11.374 11.374 0 0 1 2.1 11.535V10.7a5.393 5.393 0 0 1 2.577-4.5A4.607 4.607 0 0 1 7.6 5.575a7.773 7.773 0 0 1 1.43.381 4.172 4.172 0 0 0 1.429.4 3.624 3.624 0 0 0 1-.285 6.578 6.578 0 0 1 3.225-.532 4.536 4.536 0 0 1 3.286 1.82 3.86 3.86 0 0 0-2.143 3.89A4.056 4.056 0 0 0 18.5 14.7z" transform="translate(-2.104)" style="fill:#fff"/>
    </g>
</svg>
