<svg width="15" height="16" viewBox="0 0 15 16" fill="none" xmlns="http://www.w3.org/2000/svg">
<g clip-path="url(#clip0_18_35)">
<path d="M14.1728 9.1613C14.1713 8.81941 14.1024 8.48116 13.97 8.16596C13.8375 7.85076 13.6442 7.56481 13.401 7.32449C13.1578 7.08418 12.8696 6.89423 12.5528 6.76555C12.2361 6.63687 11.897 6.57198 11.5551 6.5746L11.5603 7.44403C11.7883 7.44267 12.0142 7.48623 12.2254 7.57221C12.4365 7.65819 12.6286 7.78491 12.7907 7.94514C12.9529 8.10536 13.0819 8.29596 13.1703 8.50603C13.2588 8.71611 13.3051 8.94156 13.3064 9.16951C13.3078 9.39745 13.2642 9.62344 13.1782 9.83455C13.0923 10.0457 12.9655 10.2378 12.8053 10.3999C12.6451 10.5621 12.4545 10.6911 12.2444 10.7795C12.0343 10.868 11.8089 10.9143 11.5809 10.9156L6.68276 10.9447C6.22281 10.9479 5.78045 10.7682 5.45299 10.4451C5.12554 10.1221 4.93981 9.68225 4.93667 9.2223C4.93354 8.76235 5.11324 8.31999 5.43626 7.99253C5.75927 7.66508 6.19914 7.47935 6.65909 7.47621L7.52544 7.468L7.52335 6.60162L6.65392 6.60679C6.31203 6.60823 5.97379 6.67714 5.65859 6.80958C5.34339 6.94201 5.05743 7.13537 4.81712 7.37856C4.5768 7.62175 4.38686 7.90998 4.25818 8.22673C4.12949 8.54348 4.0646 8.88252 4.06723 9.22441C4.07576 9.91272 4.35714 10.5695 4.84957 11.0505C5.0927 11.2928 5.38142 11.4844 5.69905 11.6144C6.01669 11.7444 6.35693 11.8102 6.70014 11.8079L11.5983 11.7788C12.2867 11.7727 12.9445 11.4936 13.4272 11.0028C13.9099 10.512 14.1781 9.84967 14.1728 9.1613Z" fill="white"/>
<path d="M0.959794 7.09647C0.957908 6.86838 1.0011 6.64216 1.08689 6.4308C1.17268 6.21945 1.29938 6.02713 1.45971 5.86488C1.62004 5.70263 1.81085 5.57366 2.02116 5.48536C2.23148 5.39707 2.45717 5.35119 2.68527 5.35036L7.58345 5.32126C7.81154 5.31937 8.03776 5.36257 8.24911 5.44836C8.46047 5.53415 8.65279 5.66085 8.81504 5.82118C8.97728 5.98151 9.10626 6.17231 9.19456 6.38263C9.28285 6.59295 9.32873 6.81864 9.32956 7.04674C9.32982 7.27501 9.28427 7.50102 9.1956 7.71137C9.10692 7.92172 8.97693 8.11214 8.81332 8.27133C8.65334 8.43511 8.46246 8.56553 8.25175 8.65507C8.04103 8.7446 7.81465 8.79147 7.58571 8.79295L6.27856 8.8099L6.28373 9.67933L7.58175 9.67162C8.27269 9.66751 8.93371 9.3891 9.41938 8.89762C9.90505 8.40614 10.1756 7.74187 10.1715 7.05092C10.1674 6.35997 9.88896 5.69895 9.39749 5.21328C8.90601 4.72761 8.24173 4.45707 7.55079 4.46118L2.65261 4.49029C2.3102 4.49132 1.97137 4.56004 1.65562 4.69249C1.33986 4.82494 1.05341 5.01851 0.812734 5.26207C0.572056 5.50562 0.381904 5.79436 0.253214 6.11166C0.124525 6.42897 0.0598364 6.76859 0.0628699 7.11098C0.0762467 7.79891 0.362 8.45343 0.85742 8.9309C1.35064 9.41922 2.017 9.6926 2.71107 9.69137L2.7059 8.82195C2.47781 8.82383 2.25159 8.78064 2.04023 8.69485C1.82888 8.60906 1.63656 8.48236 1.47431 8.32203C1.31207 8.1617 1.18309 7.9709 1.09479 7.76058C1.0065 7.55026 0.960619 7.32457 0.959794 7.09647Z" fill="white"/>
</g>
<defs>
<clipPath id="clip0_18_35">
<rect width="15" height="16" fill="white"/>
</clipPath>
</defs>
</svg>
