<?xml version="1.0" encoding="utf-8"?>
<!-- Generator: Adobe Illustrator 15.0.0, SVG Export Plug-In . SVG Version: 6.00 Build 0)  -->
<!DOCTYPE svg PUBLIC "-//W3C//DTD SVG 1.1//EN" "http://www.w3.org/Graphics/SVG/1.1/DTD/svg11.dtd">
<svg version="1.1" id="Layer_1" xmlns="http://www.w3.org/2000/svg" xmlns:xlink="http://www.w3.org/1999/xlink" x="0px" y="0px"
	 width="16.396px" height="19.676px" viewBox="0 0 16.396 19.676" enable-background="new 0 0 16.396 19.676" xml:space="preserve">
<g>
	<path fill="#F44336" d="M8.253,5.033c1.086,0,2.082,0.372,2.876,0.99l2.442-2.33c-1.421-1.25-3.277-2.016-5.318-2.016
		c-3.092,0-5.773,1.745-7.123,4.302l2.714,2.142C4.502,6.321,6.225,5.033,8.253,5.033z"/>
	<path fill="#2196F3" d="M16.236,10.738c0.042-0.33,0.07-0.666,0.07-1.007c0-0.576-0.063-1.136-0.178-1.678H8.253v3.355h4.353
		c-0.352,0.916-0.979,1.69-1.776,2.229l2.724,2.15C14.997,14.519,15.986,12.745,16.236,10.738z"/>
	<path fill="#FFC107" d="M3.555,9.731c0-0.566,0.106-1.106,0.289-1.609L1.13,5.98C0.538,7.1,0.2,8.375,0.2,9.731
		c0,1.341,0.332,2.601,0.911,3.712l2.719-2.145C3.655,10.808,3.555,10.281,3.555,9.731z"/>
	<path fill="#00B060" d="M8.253,14.429c-2.043,0-3.778-1.308-4.423-3.13l-2.719,2.145c1.343,2.578,4.035,4.341,7.142,4.341
		c2.032,0,3.885-0.755,5.3-1.997l-2.724-2.15C10.093,14.133,9.212,14.429,8.253,14.429z"/>
	<path opacity="0.1" enable-background="new    " d="M8.253,17.617c-2.369,0-4.501-0.979-6.007-2.536
		c1.474,1.654,3.616,2.703,6.007,2.703c2.369,0,4.493-1.027,5.965-2.656C12.716,16.66,10.6,17.617,8.253,17.617z"/>
	<polygon opacity="0.1" enable-background="new    " points="8.253,11.242 8.253,11.408 12.605,11.408 12.674,11.242 	"/>
	<path fill="#E6E6E6" d="M16.302,9.83c0-0.033,0.004-0.065,0.004-0.099c0-0.009-0.002-0.018-0.002-0.027
		C16.304,9.746,16.302,9.787,16.302,9.83z"/>
	<path opacity="0.2" fill="#FFFFFF" enable-background="new    " d="M8.253,8.053v0.168h7.91c-0.012-0.056-0.022-0.113-0.034-0.168
		H8.253z"/>
	
		<linearGradient id="SVGID_1_" gradientUnits="userSpaceOnUse" x1="-277.6321" y1="418.3281" x2="-276.9827" y2="418.3281" gradientTransform="matrix(24.8033 0 0 -24.8033 6886.3965 10385.6738)">
		<stop  offset="0" style="stop-color:#FFFFFF;stop-opacity:0.2"/>
		<stop  offset="1" style="stop-color:#FFFFFF;stop-opacity:0"/>
	</linearGradient>
	<path fill="url(#SVGID_1_)" d="M16.129,8.053H8.253v3.355h4.353c-0.676,1.76-2.354,3.021-4.353,3.021
		c-2.595,0-4.698-2.104-4.698-4.698c0-2.595,2.103-4.698,4.698-4.698c0.94,0,1.809,0.289,2.543,0.766
		c0.112,0.073,0.229,0.142,0.333,0.224l2.442-2.33l-0.056-0.042c-1.412-1.224-3.247-1.974-5.263-1.974
		C3.805,1.678,0.2,5.283,0.2,9.731c0,4.447,3.605,8.053,8.053,8.053c4.106,0,7.487-3.075,7.983-7.046
		c0.042-0.33,0.07-0.666,0.07-1.007C16.306,9.155,16.243,8.595,16.129,8.053z"/>
	<path opacity="0.1" enable-background="new    " d="M10.796,5.631c-0.734-0.477-1.603-0.766-2.543-0.766
		c-2.595,0-4.698,2.104-4.698,4.698c0,0.028,0,0.05,0,0.079c0.046-2.556,2.131-4.609,4.697-4.609c0.94,0,1.809,0.289,2.543,0.766
		c0.112,0.073,0.229,0.142,0.333,0.224l2.442-2.33l-2.442,2.161C11.024,5.773,10.908,5.704,10.796,5.631z"/>
	<path opacity="0.2" fill="#FFFFFF" enable-background="new    " d="M8.253,1.845c1.998,0,3.813,0.737,5.221,1.941l0.098-0.093
		l-0.075-0.064c-1.412-1.224-3.228-1.952-5.243-1.952C3.805,1.678,0.2,5.283,0.2,9.731c0,0.028,0.004,0.056,0.004,0.084
		C0.249,5.406,3.833,1.845,8.253,1.845z"/>
</g>
</svg>
