<svg xmlns="http://www.w3.org/2000/svg" width="20" height="20" viewBox="0 0 20 20">
    <path data-name="instagram" d="M1285.948 4052.4a4.154 4.154 0 0 0-4.354-4.354c-1.237-.07-4.949-.07-6.187 0a4.149 4.149 0 0 0-4.354 4.351c-.07 1.239-.07 4.951 0 6.189a4.154 4.154 0 0 0 4.354 4.355c1.238.07 4.949.07 6.187 0a4.154 4.154 0 0 0 4.354-4.355c.07-1.234.07-4.942 0-6.186zm-7.448 7.053a3.958 3.958 0 1 1 3.958-3.958 3.963 3.963 0 0 1-3.958 3.963zm4.6-7.708a.833.833 0 0 1-.008-1.667h.008a.833.833 0 1 1 0 1.667zm-1.892 3.75a2.708 2.708 0 1 1-2.708-2.708 2.711 2.711 0 0 1 2.708 2.713z" transform="translate(-1268.5 -4045.5)" style="fill:#fff"/>
</svg>
