<svg xmlns="http://www.w3.org/2000/svg" width="20" height="20" viewBox="0 0 20 20">
    <path data-name="twitter" d="M1228.954 4052.323c.011.146.011.292.011.438a9.576 9.576 0 0 1-9.719 9.573 9.769 9.769 0 0 1-5.245-1.51 7.277 7.277 0 0 0 .825.042 6.911 6.911 0 0 0 4.241-1.437 3.417 3.417 0 0 1-3.194-2.334 4.311 4.311 0 0 0 .645.052 3.688 3.688 0 0 0 .9-.114 3.38 3.38 0 0 1-2.739-3.3v-.042a3.466 3.466 0 0 0 1.544.427 3.348 3.348 0 0 1-1.522-2.8 3.3 3.3 0 0 1 .465-1.7 9.758 9.758 0 0 0 7.043 3.521 3.7 3.7 0 0 1-.085-.77 3.389 3.389 0 0 1 3.416-3.365 3.432 3.432 0 0 1 2.5 1.063 6.8 6.8 0 0 0 2.168-.812 3.367 3.367 0 0 1-1.5 1.854 6.929 6.929 0 0 0 1.967-.521 7.277 7.277 0 0 1-1.713 1.739z" transform="translate(-1212.334 -4045.666)" style="fill:#fff"/>
</svg>
