<?xml version="1.0" encoding="utf-8"?>
<!-- Generator: Adobe Illustrator 15.0.0, SVG Export Plug-In . SVG Version: 6.00 Build 0)  -->
<!DOCTYPE svg PUBLIC "-//W3C//DTD SVG 1.1//EN" "http://www.w3.org/Graphics/SVG/1.1/DTD/svg11.dtd">
<svg version="1.1" id="Layer_1" xmlns="http://www.w3.org/2000/svg" xmlns:xlink="http://www.w3.org/1999/xlink" x="0px" y="0px"
	 width="489.304px" height="453.9px" viewBox="61.289 171.6 489.304 453.9" enable-background="new 61.289 171.6 489.304 453.9"
	 xml:space="preserve">
<g id="grid_system">
</g>
<path fill="#E21E1E" d="M540.052,510.75l-168.3-300.9c-12.75-25.5-38.25-38.25-66.3-38.25c-28.05,0-53.55,12.75-66.3,38.25
	l-168.3,300.9c-12.75,22.95-12.75,53.55,0,76.5s38.25,38.25,66.3,38.25h336.6c28.05,0,51-15.3,66.3-38.25
	C555.353,564.3,552.802,536.25,540.052,510.75z M496.702,561.75c-2.55,2.55-7.65,12.75-22.95,12.75h-336.6
	c-12.75,0-20.4-7.65-22.95-12.75s-7.65-12.75,0-25.5l168.3-303.45c7.65-12.75,17.85-12.75,22.95-12.75s15.3,0,22.951,12.75
	l168.3,303.45C501.802,549,496.702,559.2,496.702,561.75z"/>
<polygon fill="#E21E1E" points="101.941,520.501 289.273,193.167 324.608,193.167 509.94,527.168 496.608,578.501 108.607,574.501 
	"/>
<g>
	<g>
		<path fill="#FFFDFD" d="M305.941,311.333c-15.3,0-25.5,10.2-25.5,25.5v76.5c0,15.299,10.2,25.5,25.5,25.5
			c15.3,0,25.5-10.201,25.5-25.5v-76.5C331.44,321.534,321.241,311.333,305.941,311.333z"/>
		<circle fill="#FFFDFD" cx="305.941" cy="489.834" r="25.5"/>
	</g>
</g>
</svg>
